<?xml version="1.0" encoding="utf-8"?>
<!-- Generator: Adobe Illustrator 23.1.0, SVG Export Plug-In . SVG Version: 6.00 Build 0)  -->
<svg version="1.1" xmlns="http://www.w3.org/2000/svg" xmlns:xlink="http://www.w3.org/1999/xlink" x="0px" y="0px"
	 viewBox="0 0 960 1080" style="enable-background:new 0 0 960 1080;" xml:space="preserve">
<style type="text/css">
	.st0{fill:#F3E7D9;}
	.st1{fill:#665070;}
	.st2{fill:#856792;}
	.st3{fill:#33A86D;}
	.st4{fill:#F5894E;}
	.st5{fill:#F7BC4B;}
	.st6{fill:#7A462F;}
	.st7{fill:#A96443;}
	.st8{fill:#CC6D3D;}
	.st9{fill:#CE9436;}
	.st10{fill:#FEED7F;}
	.st11{fill:#273252;}
	.st12{fill:#121721;}
	.st13{fill:#288453;}
	.st14{fill:#1D2538;}
	.st15{fill:#992C29;}
	.st16{fill:#C94039;}
</style>
<g id="bg">
	<path class="st0" d="M660.93,214.93c0,0,229.71-90.24,244.48-95.17c14.77-4.92-34.46-44.3-136.19-16.41c0,0-29.53-34.46-77.12-3.28
		c-47.58,31.17-54.15,80.4-34.46,83.68c0,0-62.35,27.89-65.63,44.3C588.74,244.46,660.93,214.93,660.93,214.93z"/>
	<path class="st0" d="M278.61,568.32c0,0,549.54-237.07,579.66-248.58c30.12-11.52,25.43-30.91,16.57-38.88
		c-8.86-7.97-59.09-28.44-119.33-0.98c0,0,17.72-27.46-75.3-5.32s-64.67,34.55-64.67,34.55s-25.69-86.81-176.29-43.41
		c0,0-17.72-73.53-106.3-62.01c-88.59,11.52-126.68,93.9-117.82,135.54c8.86,41.64,27.46,46.06,27.46,46.06s-38.09,4.43-45.18,28.35
		c-7.09,23.92-1.77,24.8-1.77,24.8s-77.96,73.53-92.13,96.56c-14.17,23.03-26.58,37.21-3.54,28.35c23.03-8.86,56.7-29.23,56.7-29.23
		s-31.89,26.58-31.01,33.66c0.89,7.09-89.46,73.28-47.82,64.42C119.48,623.35,278.61,568.32,278.61,568.32z"/>
</g>
<g id="ground">
	<path class="st1" d="M612.48,942.31c0,0,20.15-35.12,54.72-35.05s45.83,17.42,45.83,17.42s11.84-24.82,32.23-23.85
		s60.63,42.81,60.63,42.81L612.48,942.31z"/>
	<path class="st2" d="M346.27,954.58c0,0-138.9,4.8-183.96,10.68c-36.4,4.75-59.08,16.88-61.45,19.78
		c-5.2,6.36,15.56,6.33,15.56,6.33s-33.76,0.66-39.56,10.68c-6.01,10.38,142.42,0,142.42,0s-45.11,9.92,15.43,11.87
		c73.58,2.37,214.81,10.68,284.14-8.51c40.7-11.27-1.08-38.57-44.01-38.57S346.27,954.58,346.27,954.58z"/>
	<path class="st2" d="M540.91,942.71c0,0,123.78-1.06,138.86-1.19c47.08-0.4,129.65,0.06,145.98,5.14
		c22.41,6.98-0.31,14.51-0.31,14.51s26.02,3.9,46.83,5.2c20.81,1.3,79.35,15.61,23.42,15.61s-260.56,9.04-333.41,12.94
		c-72.85,3.9-63.36,3.97-98.49,0.07S380.9,955.72,540.91,942.71z"/>
	<path class="st2" d="M681.81,981.15c-92.1-4.07-146,22.54-47.35,25.04C738.38,1008.83,773.9,985.22,681.81,981.15z"/>
	<path class="st2" d="M564.2,1008.21c-55.33-2.45-87.72,13.54-28.44,15.05C598.19,1024.84,619.54,1010.66,564.2,1008.21z"/>
	<path class="st1" d="M354.13,969.7c0,0-80.89,3.18-130.04,5.91s-3.11,18.65,54.75,14.56c0,0-38.78,11.37,28.41,14.1
		c67.2,2.73,153.48-5.46,116.98-12.13c-30.75-5.62-65.13-1.97-65.13-1.97S428.17,972.73,354.13,969.7z"/>
	<path class="st1" d="M511.13,972.11c0,0-68.46,1.64-38.66,12.33c29.8,10.68,75.71,9.04,78.13,1.64s-5.64-4.93-5.64-4.93
		s42.69,4.93,55.58,0.82c12.89-4.11-19.33-13.15-55.58-13.15S511.13,972.11,511.13,972.11z"/>
	<path class="st2" d="M845,923.52c0,0-46.87,0.98-32.22,6.84c14.65,5.86,61.52,2.93,58.59-1.95S845,923.52,845,923.52z"/>
	<path class="st1" d="M643.37,949.23c0,0,11.73,2.14,26.92,1.38c0,0-6.21,4.4,15.87,3.98c22.09-0.42,81.04,0.34,70.4-9.66
		c-18.82-17.69-35.05-9.83-35.05-9.83s-4.56-9.96-27.54-5.41C646.25,939.15,643.37,949.23,643.37,949.23z"/>
	<g>
		<path class="st2" d="M169.44,968.43c0,0,17.41-23.74,44.31-22.15s34.81,14.24,34.81,14.24s28.48-25.32,44.31-23.74
			s36.4,39.16,36.4,39.16L169.44,968.43z"/>
	</g>
	<path class="st3" d="M294.85,983.04c0,0,9.43-15.01,6.73-21.69c-2.7-6.68-13.46,7.48-13.46,7.48s3.85-27.76-8.98-20.94
		c-11.97,6.36-10.66,23.47-3.74,30.67C282.32,985.75,294.85,983.04,294.85,983.04z"/>
	<path class="st3" d="M700.08,1005.35c0,0-23.98-24.86-10.62-29.31s19.29,19.29,19.29,19.29s11.87-48.97,23.74-41.55
		c11.87,7.42-4.45,41.55-4.45,41.55s19.29-31.16,22.26-25.23c2.97,5.94-2.97,19.29-2.97,19.29s38.58-25.23,35.61-11.87
		c-2.97,13.35-25.23,31.16-57.87,31.16S700.08,1005.35,700.08,1005.35z"/>
</g>
<g id="treasure_chest">
	<g>
		<path class="st4" d="M354.1,691.03h264.49c0,0,46.81,14.63,58.87,69.44c11.39,51.78,6.58,52.61,6.58,52.61l-240.05,15.35
			C443.98,828.43,370.54,686.65,354.1,691.03z"/>
		<path class="st5" d="M281.76,835.01c0,0-15.83-141.78,74.05-143.98c89.88-2.19,88.17,137.4,88.17,137.4L281.76,835.01z"/>
		<path class="st6" d="M306.65,805.41c0,0-6.92-80.22,49.86-81.43s56.78,78.42,56.78,78.42L306.65,805.41z"/>
		<path class="st7" d="M315.55,805.41c0,0-2.64-81.43,40.96-81.43c56.79,0,56.78,78.42,56.78,78.42L315.55,805.41z"/>
		<polygon class="st5" points="281.76,835.01 309.16,976.41 451.66,987.37 443.98,828.43 		"/>
		<polygon class="st4" points="443.98,828.43 678.55,809.8 676.36,958.87 451.66,987.37 		"/>
		<path class="st7" d="M428.64,710.05l184.75-5.14c0,0,30.28,8.43,42.34,47.89c6.58,19.73,6.58,46.04,6.58,46.04l-194.48,3.73
			C467.83,802.56,462.62,733.07,428.64,710.05z"/>
		<path class="st6" d="M434.76,715.24l172.15-5.14c0,0,27.46,6.54,39.52,46c6.58,19.73,7.23,42.74,7.23,42.74l-185.83,3.73
			C467.83,802.56,460.08,735.81,434.76,715.24z"/>
		<path class="st6" d="M306.19,847.52c0,0,72.18-11.66,122.45-3.75l6.58,119.48l-114-7.67L306.19,847.52z"/>
		<path class="st7" d="M315.81,852.7c0,0,62.55-11.66,112.82-3.75l6.58,114.3l-104.37-7.67L315.81,852.7z"/>
		<path class="st7" d="M475.77,843.78l10.96,119.48l178.67-18.87V835.86c0,0-24.26-6.07-88.44-4.34
			C528.74,832.83,475.77,843.78,475.77,843.78z"/>
		<path class="st6" d="M476.16,849.88l10.57,113.37l169.56-18.03V842.89c0,0-15.16-5.43-79.33-3.69
			C528.74,840.5,476.16,849.88,476.16,849.88z"/>
		<polygon class="st8" points="677.57,812.45 443.81,820.25 563.09,822.85 678.43,821.12 		"/>
		<polygon class="st9" points="443.8,820.24 281.23,828.92 443.92,823.46 		"/>
	</g>
	<path class="st7" d="M501.75,802.27c0,0,10.68-59.93-31.65-93.16l31.25-0.2c0,0,27.69,18.99,26.9,92.57L501.75,802.27z"/>
	<path class="st4" d="M511.24,806.23c0,0,13.05-66.46-36.79-105.63l27.3,0.4c0,0,36.4,28.48,35.6,102.07L511.24,806.23z"/>
	<path class="st7" d="M574.54,806.23c0,0,17.8-57.56-26.9-99.1l27.3-1.38c0,0,29.67,25.32,28.88,98.9L574.54,806.23z"/>
	<path class="st4" d="M584.82,806.23c0,0,13.05-66.46-36.79-105.63l25.71,0.4c0,0,43.52,25.32,40.35,103.65L584.82,806.23z"/>
	<path class="st7" d="M506.69,838.37c0,0,7.62,99.59,6.43,122.14l25.02-2.67l-11.77-122.34L506.69,838.37z"/>
	<path class="st4" d="M517.18,828.78c0,0,7.12,113.93,5.93,136.48l27.3-2.37l-11.87-134.11H517.18z"/>
	<polygon class="st7" points="585.35,831.29 595.58,951.74 615.42,949.7 609.35,831.02 	"/>
	<polygon class="st4" points="596.69,828.38 606.19,958.14 627.55,954.58 620.43,826.41 	"/>
	<polygon class="st6" points="310.27,793.31 412.64,790.6 411.02,779.86 310.8,782.76 	"/>
	<path class="st6" d="M315.42,770.63l91.78-4.35c0,0-1.58-6.53-2.37-7.71c-0.79-1.19-88.62,2.57-88.62,2.57l-0.79,10.09"/>
	<path class="st6" d="M323.73,747.88l73.38-2.77c0,0-2.18-4.15-4.35-5.74l-67.05,1.38L323.73,747.88z"/>
	<polygon class="st6" points="330.85,848.69 342.52,956.82 352.47,957.42 342.98,846.58 	"/>
	<polygon class="st6" points="366.19,958.41 358.27,845 370.93,844.47 375.29,959 	"/>
	<polygon class="st6" points="390.98,960.12 383.46,845.2 396.52,844.8 400.08,960.71 	"/>
	<polygon class="st6" points="408.71,845 414.65,961.9 425.13,962.49 421.57,845.4 	"/>
	<path class="st7" d="M443.99,725.53l44.11-1.38l7.52,11.87l-44.31,2.97c0,0-2.37-5.44-3.86-7.81
		C445.97,728.79,443.99,725.53,443.99,725.53z"/>
	<polygon class="st7" points="455.86,750.35 497.79,748.08 502.54,762.71 460.21,764.69 	"/>
	<polygon class="st7" points="529.44,746.4 573.35,743.73 577.04,758.49 533.26,760.21 	"/>
	<polygon class="st7" points="463.37,776.96 504.52,776.16 504.52,789.71 465.95,789.91 	"/>
	<polygon class="st7" points="535.77,773.4 582.45,772.6 583.24,787.51 537.09,789.09 	"/>
	<polygon class="st7" points="519.29,723.15 560.69,720.78 569.26,733.7 525.09,735.02 	"/>
	<path class="st7" d="M592.08,719.07l35.08,0.13l8.97,12.4l-36,0.13c0,0-2.37-3.82-4.22-6.99
		C594.05,721.57,592.08,719.07,592.08,719.07z"/>
	<polygon class="st7" points="604.87,742.01 640.87,740.82 648.38,759.42 609.35,758.49 	"/>
	<polygon class="st7" points="613.04,774.32 652.6,773.26 656.3,789.09 614.36,789.48 	"/>
	<polygon class="st7" points="495.68,845 504.12,961.41 492.25,962.68 481.7,844.74 	"/>
	<polygon class="st7" points="573.75,835.64 580.01,953.4 562.8,955.18 556.08,837.48 	"/>
	<polygon class="st7" points="646.8,834.98 647.86,946.14 636.25,947.2 633.09,834.45 	"/>
</g>
<g id="lock">
	<path class="st8" d="M572.51,768.9l-5.24,0.05c0,0-22.39,31.35-51.3,42.05c0,0,20.24,34.98,54.49,59.7l6.25-0.18L572.51,768.9z"/>
	<path class="st5" d="M614.39,806.08c0,0-24.9-9.9-41.94-37.22c0,0-20.97,35.2-44.92,43.87c0,0,16.64,32.81,48.71,57.53
		C576.24,870.26,610.33,842.07,614.39,806.08z"/>
	<path class="st10" d="M616.21,807.01c0,0-24.41-9.09-41.12-34.16c0,0-25.87,41.02-40.11,40.23c-14.24-0.79,66.33,25.31,66.33,25.31
		C607.26,829.36,614.81,818.63,616.21,807.01z"/>
	<g>
		<ellipse class="st11" cx="576.58" cy="813.31" rx="10.84" ry="11.27"/>
		<path class="st11" d="M577.17,842.36h-0.68c-1.97,0-3.56-1.59-3.56-3.56v-27.14c0-1.97,1.59-3.56,3.56-3.56h0.68
			c1.97,0,3.56,1.59,3.56,3.56v27.14C580.73,840.77,579.13,842.36,577.17,842.36z"/>
	</g>
	<g>
		<ellipse class="st12" cx="573.02" cy="813.31" rx="10.84" ry="11.27"/>
		<path class="st12" d="M573.61,842.36h-0.68c-1.97,0-3.56-1.59-3.56-3.56v-27.14c0-1.97,1.59-3.56,3.56-3.56h0.68
			c1.97,0,3.56,1.59,3.56,3.56v27.14C577.17,840.77,575.57,842.36,573.61,842.36z"/>
	</g>
</g>
<g id="diamonds">
	<polygon class="st10" points="677.4,649.57 660.78,682.8 677.4,704.16 691.64,682.8 	"/>
	<polygon class="st5" points="244.44,797.92 224.57,837.66 244.44,863.2 261.47,837.66 	"/>
	<polygon class="st10" points="260.44,685.18 249.24,707.57 260.44,721.97 270.03,707.57 	"/>
	<polygon class="st10" points="425.4,720.78 414.21,743.17 425.4,757.57 435,743.17 	"/>
	<polygon class="st10" points="617.16,737.15 605.96,759.55 617.16,773.95 626.76,759.55 	"/>
	<polygon class="st10" points="484.56,853.7 468.66,885.49 484.56,905.92 498.18,885.49 	"/>
	<polygon class="st10" points="712.41,725.53 696.67,757.02 712.41,777.27 725.91,757.02 	"/>
	<polygon class="st5" points="199.65,624.65 184.87,683.94 199.65,725.53 214.31,683.94 	"/>
	<polygon class="st5" points="715.37,573.62 690.45,623.46 715.37,655.51 737.92,622.27 	"/>
</g>
<g id="leaves">
	<ellipse class="st3" cx="302.91" cy="914.49" rx="6.65" ry="5.78"/>
	<ellipse class="st3" cx="304.5" cy="932.06" rx="6.65" ry="5.78"/>
	<path class="st3" d="M297.2,950.99c-5.3-0.53-0.58-13.3,6.94-12.14c7.52,1.16,0,8.67,0,8.67S302.98,951.57,297.2,950.99z"/>
	<path class="st3" d="M301.39,928.23c0,0,4.55-3.25-0.22-7.59s-8.46-2.6-8.46,4.12C292.72,931.48,295.54,931.7,301.39,928.23z"/>
	<path class="st3" d="M308.98,955.98c-0.87-3.25-8.02-7.15-9.54,0.65c-1.52,7.81,8.24,8.02,9.32,4.34S308.98,955.98,308.98,955.98z"
		/>
	<path class="st3" d="M318.84,970.56c-1.44-4.11-13.31-9.04-15.83,0.82c-2.52,9.86,13.67,10.14,15.47,5.48
		S318.84,970.56,318.84,970.56z"/>
	<path class="st3" d="M675.06,909.36c-11-0.55-18.14,16.64-7.1,18.81C679,930.35,686.06,909.91,675.06,909.36z"/>
	<path class="st13" d="M685.31,899.5c3.15-10.46-14.19-11.41-14.98-3.8C669.54,903.31,682.15,909.96,685.31,899.5z"/>
	<path class="st13" d="M665.27,945.39c3.15-10.46-14.19-11.41-14.98-3.8C649.49,949.2,662.11,955.85,665.27,945.39z"/>
	<path class="st3" d="M658.52,963.22c2.29-7.6-10.32-8.3-10.89-2.77C647.05,965.98,656.23,970.82,658.52,963.22z"/>
	<path class="st3" d="M669.07,961.64c2.29-7.6-10.32-8.3-10.89-2.77C657.6,964.4,666.78,969.24,669.07,961.64z"/>
	<path class="st13" d="M681.12,888.76c7.37-2.68-4.13-15.68-8.45-12.64C668.34,879.16,673.74,891.44,681.12,888.76z"/>
	<path class="st13" d="M661.77,885.59c5.66,5.43,9.25-4.77,4.62-7.3C661.75,875.75,656.1,880.16,661.77,885.59z"/>
	<path class="st13" d="M672.41,859.57c5.66,5.43,9.25-4.77,4.62-7.3C672.39,849.73,666.75,854.14,672.41,859.57z"/>
	<path class="st13" d="M671.88,816.84c5.66,5.43,9.25-4.77,4.62-7.3C671.87,807,666.22,811.41,671.88,816.84z"/>
	<path class="st13" d="M659.75,815.52c5.66,5.43,9.25-4.77,4.62-7.3S654.09,810.09,659.75,815.52z"/>
	<path class="st13" d="M667.14,810.51c5.66,5.43,9.25-4.77,4.62-7.3C667.12,800.67,661.48,805.08,667.14,810.51z"/>
	<path class="st13" d="M506.52,825.54c5.66,5.43,9.25-4.77,4.62-7.3S500.86,820.11,506.52,825.54z"/>
	<path class="st13" d="M516.02,814.86c5.66,5.43,9.25-4.77,4.62-7.3S510.36,809.43,516.02,814.86z"/>
	<path class="st13" d="M516.02,827.13c5.66,5.43,9.25-4.77,4.62-7.3S510.36,821.7,516.02,827.13z"/>
	<path class="st13" d="M495.84,825.94c5.66,5.43,9.25-4.77,4.62-7.3C495.82,816.1,490.18,820.51,495.84,825.94z"/>
	<path class="st3" d="M672.6,962.3c0,0,3.47-19.95,14.74-18.21c11.27,1.73,3.47,17.35-4.34,19.95
		C675.2,966.64,672.6,962.3,672.6,962.3z"/>
	<path class="st13" d="M671.09,952.37c0,0-6.79-11.71-0.26-15.67s9.23,7.4,6.34,12.09S671.09,952.37,671.09,952.37z"/>
	<path class="st13" d="M430.54,920.16c0,0-5.93,21.36,5.93,16.62S443.59,914.23,430.54,920.16z"/>
	<path class="st13" d="M440.03,907.11c0,0-1.19,16.62,9.49,9.49C460.21,909.48,449.53,901.18,440.03,907.11z"/>
	<path class="st13" d="M435.29,884.56c0,0,2.37,18.99,10.68,9.49C454.27,884.56,437.66,876.25,435.29,884.56z"/>
	<path class="st13" d="M319.77,978.32c0,0-2.37-26.11,7.12-26.11s2.37,23.74,2.37,23.74s16.62-23.74,21.36-11.87
		C355.37,975.95,330.45,990.19,319.77,978.32z"/>
	<g>
		<path class="st13" d="M495.81,974.36c0,0-3.96-14.64,5.93-22.15s7.12,13.05,7.12,13.05s8.31-17.8,18.2-12.26
			c9.89,5.54-1.98,22.15-1.98,22.15s8.92-3.63,9.89,5.14c0.97,8.77-56.18,15.03-51.03-1.58
			C489.09,962.1,495.81,974.36,495.81,974.36z"/>
		<g>
			<path class="st3" d="M492.33,993.54c7.49-3.05-13.79-41.14-30.94-51.91s-10.7,32.4,1.69,43.63S484.84,996.59,492.33,993.54z"/>
			<path class="st3" d="M477.89,994.25c0,0-25.67-20.01-44.19-21.6c-18.52-1.59-5.13,14.24-5.13,14.24s-18.98-6.35-25.11,3.28
				C397.34,999.81,477.89,994.25,477.89,994.25z"/>
			<path class="st3" d="M511.62,990.11c1.72-2.76,1.72-11.52-10.95-11.6c-12.67-0.08-17.05,11.04-13.02,14.36
				C491.69,996.19,509.9,992.87,511.62,990.11z"/>
		</g>
		<g>
			<path class="st3" d="M459.44,1039.01c0,0-5.97-3.86-17.28-2.39c-11.18,1.45-15.32,3.95-7.3,6.22
				C440.02,1044.3,455.48,1044.42,459.44,1039.01z"/>
			<path class="st13" d="M416.3,1022.23c0,0-5.97-3.86-17.28-2.39c-11.18,1.45-15.32,3.95-7.3,6.22
				C396.87,1027.52,412.34,1027.64,416.3,1022.23z"/>
			<path class="st3" d="M441.98,1028.74c0,0-5.97-3.86-17.28-2.39c-11.18,1.45-15.32,3.95-7.3,6.22
				C422.55,1034.03,438.02,1034.14,441.98,1028.74z"/>
			<path class="st3" d="M417.32,1033.87c0,0-5.97-3.86-17.28-2.39c-11.18,1.45-15.32,3.95-7.3,6.22
				C397.9,1039.16,413.37,1039.28,417.32,1033.87z"/>
		</g>
		<g>
			<path class="st13" d="M331.97,1032.31c0,0-6.34-4.66-18.94-3.79c-12.45,0.86-17.19,3.35-8.48,6.39
				C310.16,1036.87,327.24,1038.02,331.97,1032.31z"/>
			<path class="st13" d="M378.89,1035.14c0,0-6.34-4.66-18.94-3.79c-12.45,0.86-17.19,3.35-8.48,6.39
				C357.08,1039.69,374.16,1040.85,378.89,1035.14z"/>
			<path class="st13" d="M352.48,1024.95c0,0-4.96-3.65-14.84-2.97c-9.75,0.67-13.47,2.62-6.64,5.01
				C335.39,1028.52,348.77,1029.43,352.48,1024.95z"/>
			<path class="st13" d="M353.51,1036.14c0,0-6.34-4.66-18.94-3.79c-12.45,0.86-17.19,3.35-8.48,6.39
				C331.7,1040.7,348.78,1041.85,353.51,1036.14z"/>
		</g>
	</g>
</g>
<g id="dog">
	<path class="st14" d="M511.68,615.05c0,0,43.8,12.58,39.46,43.36c-4.34,30.79-12.58,23.85-12.58,23.85s14.31-2.6,22.98,2.6
		c8.67,5.2,2.17,7.81,2.17,7.81l-107.07,3.04c0,0,4.74-21.25,15.58-43.8C483.07,629.36,511.68,615.05,511.68,615.05z"/>
	<g>
		<path class="st14" d="M548.02,382.26c0,0,0.58-17.74,2.93-30.94c2.25-12.62,8.01-5.62,13.15,5.04
			c5.39,11.18,8.52,29.39,9.59,33.67C574.76,394.32,552.37,397.13,548.02,382.26z"/>
		<path class="st14" d="M600.5,687.85c-1.02-6.82-12.3-12.93-12.3-12.93c-0.45-1.5-2.19-5.86-2.19-5.86s-10.49-40.33-10.37-45.39
			c0.25-10.51,1.94-80.52,2.85-104.65s-43.83,14-46.22,37.58c-1.7,16.82,18.01,75.07,18.5,76.32l14.45,45.68
			c1.69,4.28,10.61,15.63,16.19,15.03C587.01,693.04,601.5,694.52,600.5,687.85z"/>
		<path class="st11" d="M531.12,507.17c-13.69-1.85-54.2-11.27-54.2-31.65c0-23.91-0.64-50.29,3.35-64.52c0,0-4.62-24.04-5.44-37.34
			c-0.81-13.3,2.41-14.67,8.38-9.59s16.95,24.65,16.95,24.65s26.98-19.15,53.53-14.53s37.83,19.14,43.15,32.58l0.97,0.84
			c0,0,24.32,6.26,37.94,8.38c13.62,2.12,18.9,7.58,16.49,22.25c-2.41,14.67-3.71,18.29-10.15,25.01
			c-6.43,6.72-38.77,21.66-55.43,28.35l-10.88,23.6C566.22,519.42,544.81,509.03,531.12,507.17z"/>
		<path class="st14" d="M509.96,500.62c0,0-35.33,9.41-35.44-14.5c-0.11-23.91,1.75-60.9,5.74-75.13c0,0-4.62-24.04-5.44-37.34
			c-0.81-13.3,2.41-14.67,8.38-9.59s16.95,24.65,16.95,24.65s26.98-19.15,53.53-14.53c0,0-27.44,20.29-35.78,33.3
			c-8.34,13.01-2.27,61.75-2.27,61.75s25.36,16.23,24.15,19.28C535.93,498.24,509.96,500.62,509.96,500.62z"/>
		<path class="st11" d="M554.07,381.19c0,0-0.44-17.09-0.53-28.5c-0.1-12.82,7.47-7.26,12.62,3.4c5.39,11.18,9.68,22.97,10.75,27.25
			C577.99,387.62,555.76,391.9,554.07,381.19z"/>
		<path class="st11" d="M561.88,501.62c0,0-84.78-25.23-93.63-16.99c-18.65,17.35-31.11,35.4-62.01,85.43
			c-9.11,14.74-26.89,21.25-41.19,52.9c-12.45,27.54,1.33,61.48,11.3,68.42c7.91,2.9,74.37,1.58,91.78-22.02
			c16.44-22.29,29.39-31.63,71.08-73.32c15.82-15.82,24.76-26.28,29.8-41.41C577.67,528.61,576.95,507.21,561.88,501.62z"/>
		<path class="st14" d="M511.61,503.27c0,0-34.51-26.88-43.36-18.65c-18.65,17.35-31.11,35.4-62.01,85.43
			c-9.11,14.74-26.89,21.25-41.19,52.9c-12.45,27.54,1.37,61.52,11.35,68.46c0,0,8.6-34.63,21.17-53.28
			c12.58-18.65,96.27-86.73,96.27-86.73C511.17,531.89,526.68,508.87,511.61,503.27z"/>
		
			<ellipse transform="matrix(0.9364 -0.351 0.351 0.9364 -111.4607 249.755)" class="st12" cx="633.21" cy="432.34" rx="18.53" ry="13.81"/>
		<g>
			<path class="st14" d="M542.63,691.9c-1.24-8.64-15.34-18.21-15.34-18.21c-0.53-1.89-0.3-5.17-0.62-7.1
				c-4.47-26.85-9.59-43.4-9.49-49.85c0.2-13.39-0.46-44.29,0.4-75.03c0.86-30.74-60.1-3.05-53.58,21.84
				c5.46,20.84,17.78,65.46,18.37,67.04l28.1,58.89c2,5.38,3.74,9.26,10.28,9.03C532.6,698.1,543.84,700.35,542.63,691.9z"/>
			<path class="st11" d="M528.6,674.55c-0.53-1.89-3.36-5.65-3.69-7.59c-4.47-26.85-9.56-39.77-10.19-46.18
				c-1.9-19.47,3.24-102.55,3.24-102.55l-20.57,32.24c0,0-2.3,75.37-1.71,76.95l22.3,61.01c2,5.38,16.95,8.47,23.2,6.5
				C548.77,692.55,528.6,674.55,528.6,674.55z"/>
		</g>
		<path class="st14" d="M558.95,494.19c0,0,17.92,2.57,27.72-2.6c12.84-4.99,34.29-15.56,34.29-15.56l-36.4,5.01L558.95,494.19z"/>
		<g>
			<path class="st15" d="M473.64,469.04c0,0-5.62,8.37-6.21,15.03c0,0,23.85,11.53,65.14,23.12c22.13,6.21,47.12,10.69,47.12,10.69
				l5.78-17.92C585.47,499.94,521.94,493.4,473.64,469.04z"/>
		</g>
		<g>
			<path class="st12" d="M548.55,406.36l-10.12,0.22c-0.97,2.67-0.23,6.71,2.17,10.42c3.27,5.06,8.38,7.58,11.41,5.62
				c3.03-1.96,2.84-7.65-0.43-12.71C550.68,408.51,549.64,407.32,548.55,406.36z"/>
			<path class="st12" d="M590.14,400.57c-1.68-2.61-4.07-4.3-6.28-4.72l-4.94,7.95c0.32,1.03,0.8,2.07,1.45,3.08
				c2.61,4.05,6.92,5.91,9.61,4.17C592.69,409.3,592.76,404.61,590.14,400.57z"/>
		</g>
	</g>
	<path class="st14" d="M420.55,602.57c0,0,30.35,1.73,34.69,25.15c4.34,23.42,1.73,48.57,1.73,48.57s12.14-22.55,4.34-51.17
		C453.5,596.5,420.55,602.57,420.55,602.57z"/>
	<path class="st11" d="M468.76,675.71c0,0,14.17,4.05,25.73,9.25c11.56,5.2,17.35,19.66,8.67,22.55
		c-8.67,2.89-60.75-10.07-60.75-10.07l-33.63-5.54C408.78,691.9,429.44,664.15,468.76,675.71z"/>
</g>
<g id="collar_ribbon">
	<path class="st15" d="M578.79,500.16c0,0,18.25,25.95,19.57,35.79l-18.29-2.27C580.07,533.68,573.36,516.57,578.79,500.16z"/>
	<g>
		<path class="st16" d="M578.54,500.8c0,0,20.59-4.45,29.49-0.75l1.73,24.95C609.76,525.01,585.05,509.43,578.54,500.8z"/>
		<path class="st15" d="M578.54,500.8c5.13,8.51,31.22,24.2,31.22,24.2s-6.66-14.42-10.05-16.56
			C596.32,506.31,578.54,500.8,578.54,500.8z"/>
	</g>
</g>
<g id="tail">
	<path class="st14" d="M374.04,681.1c0,0-20.62,8.43-26.6,24.86c-6.94,19.08-3.47,58.4,29.49,56.66c0,0-18.27-22.18-15.03-41.05
		c3.47-20.24,13.6-27.84,14.51-31.57C377.33,686.26,374.04,681.1,374.04,681.1z"/>
</g>
</svg>
